<svg width="863" height="1080" viewBox="0 0 863 1080" fill="none" xmlns="http://www.w3.org/2000/svg">
<path d="M551.133 28H517V100H783.667V172H709V244H858.333V316H544.733V388H570.333V460H862.6V532H604.467V604H834.867V676H794.333V748H721.8V820H595.933V892H561.8V964H619.4V1036H796.467V1108H37V1036V964V892V820V748V676V604V532V460V388V316V244V172V100V28H551.133Z" fill="#2C2C2C"/>
<path d="M444.467 28H617.267V100H595.933V172H504.2V244H450.867V316H632.2V388H523.4V460H410.333V532H389V604H457.267V676H331.4V748H604.467V820H346.333V892H529.8V964H440.2V1036H583.133V1108H37V1036V964V892V820V748V676V604V532V460V388V316V244V172V100V28H444.467Z" fill="#393939"/>
<path d="M378.333 28H263.133V100H261V172H229V244H312.2V316H288.733V388H269.533V460H406.067V532H318.6V604H226.867V676H252.467V748H416.733V820H145.8V892H352.733V964H158.6V1036H271.667V1108H37V1036V964V892V820V748V676V604V532V460V388V316V244V172V100V28H378.333Z" fill="#474747"/>
<path d="M514.133 0H480V72H746.667V144H672V216H821.333V288H507.733V360H533.333V432H825.6V504H567.467V576H797.867V648H757.333V720H684.8V792H558.933V864H524.8V936H582.4V1008H759.467V1080H0V1008V936V864V792V720V648V576V504V432V360V288V216V144V72V0H514.133Z" fill="#D594F1"/>
<path d="M407.467 0H580.267V72H558.933V144H467.2V216H413.867V288H595.2V360H486.4V432H373.333V504H352V576H420.267V648H294.4V720H567.467V792H309.333V864H492.8V936H403.2V1008H546.133V1080H0V1008V936V864V792V720V648V576V504V432V360V288V216V144V72V0H407.467Z" fill="#E0A0ED"/>
<path d="M341.333 0H226.133V72H224V144H192V216H275.2V288H251.733V360H232.533V432H369.067V504H281.6V576H189.867V648H215.467V720H379.733V792H108.8V864H315.733V936H121.6V1008H234.667V1080H0V1008V936V864V792V720V648V576V504V432V360V288V216V144V72V0H341.333Z" fill="#E9ADEB"/>
</svg>
