<svg width="1105" height="1080" viewBox="0 0 1105 1080" fill="none" xmlns="http://www.w3.org/2000/svg">
<path d="M175 1116H466V1038.43H140V960.859H582V883.289H290V804.711H376V727.141H410V649.57H434V572H187V494.43H458V416.859H420V339.289H637V260.711H493V183.141H32V105.57H278V28H1137V105.57V183.141V260.711V339.289V416.859V494.43V572V649.57V727.141V804.711V883.289V960.859V1038.43V1116H175Z" fill="#474747"/>
<path d="M630 1116H758V1038.43H516V960.859H881V883.289H512V804.711H940V727.141H502V649.57H279V572H440V494.43H471V416.859H823V339.289H759V260.711H495V183.141H814V105.57H911V28H1137V105.57V183.141V260.711V339.289V416.859V494.43V572V649.57V727.141V804.711V883.289V960.859V1038.43V1116H630Z" fill="#393939"/>
<path d="M662 1116H1016V1038.43H736V960.859H766V883.289H634V804.711H847V727.141H885V649.57H579V572H915V494.43H1070V416.859H892V339.289H939V260.711H830V183.141H1055V105.57H693V28H1137V105.57V183.141V260.711V339.289V416.859V494.43V572V649.57V727.141V804.711V883.289V960.859V1038.43V1116H662Z" fill="#2C2C2C"/>
<path d="M143 1080H434V1003H108V926H550V849H258V771H344V694H378V617H402V540H155V463H426V386H388V309H605V231H461V154H0V77H246V0H1105V77V154V231V309V386V463V540V617V694V771V849V926V1003V1080H143Z" fill="#D594F1"/>
<path d="M598 1080H726V1003H484V926H849V849H480V771H908V694H470V617H247V540H408V463H439V386H791V309H727V231H463V154H782V77H879V0H1105V77V154V231V309V386V463V540V617V694V771V849V926V1003V1080H598Z" fill="#E0A0ED"/>
<path d="M630 1080H984V1003H704V926H734V849H602V771H815V694H853V617H547V540H883V463H1038V386H860V309H907V231H798V154H1023V77H661V0H1105V77V154V231V309V386V463V540V617V694V771V849V926V1003V1080H630Z" fill="#E9ADEB"/>
</svg>
